<svg height="480pt" viewBox="0 0 480 480" width="480pt" xmlns="http://www.w3.org/2000/svg" xmlns:xlink="http://www.w3.org/1999/xlink"><linearGradient id="a"><stop offset="0" stop-color="#47c0bb"/><stop offset="1" stop-color="#0063ae"/></linearGradient><linearGradient id="b" gradientUnits="userSpaceOnUse" x1="-8" x2="497.016" xlink:href="#a" y1="240" y2="240"/><linearGradient id="c" gradientUnits="userSpaceOnUse" x1="-8" x2="497.016" xlink:href="#a" y1="72" y2="72"/><linearGradient id="d" gradientUnits="userSpaceOnUse" x1="-8" x2="497.016" xlink:href="#a" y1="112" y2="112"/><linearGradient id="e" gradientUnits="userSpaceOnUse" x1="-8" x2="497.016" xlink:href="#a" y1="432" y2="432"/><linearGradient id="f" gradientUnits="userSpaceOnUse" x1="-8" x2="497.016" xlink:href="#a" y1="336" y2="336"/><linearGradient id="g" gradientUnits="userSpaceOnUse" x1="-8" x2="497.016" xlink:href="#a" y1="384" y2="384"/><linearGradient id="h" gradientUnits="userSpaceOnUse" x1="-8" x2="497.016" xlink:href="#a" y1="48" y2="48"/><path d="m464 168c0-13.253906-10.746094-24-24-24h-8v-144h-128v144h-8c-13.253906 0-24 10.746094-24 24v88h-40v-16h8c4.417969 0 8-3.582031 8-8v-32c0-4.417969-3.582031-8-8-8h-8v-24c0-4.417969-3.582031-8-8-8h-64c-4.417969 0-8 3.582031-8 8v32c0 4.417969 3.582031 8 8 8h8v16h-8c-4.417969 0-8 3.582031-8 8v24h-40.878906c10.792968-10.507812 16.882812-24.933594 16.878906-40-.082031-15.875-5.746094-31.210938-16-43.328125v-52.671875c0-4.417969-3.582031-8-8-8h-64c-4.417969 0-8 3.582031-8 8v52.671875c-10.253906 12.117187-15.917969 27.453125-16 43.328125-.003906 15.066406 6.085938 29.492188 16.878906 40h-32.878906v224h480v-224h-16zm-16 88h-16v-48h16zm-128-96h16.664062c2.183594 14.03125 10.351563 32 31.335938 32s29.152344-17.96875 31.335938-32h16.664062v96h-96zm32.9375 0h30.125c-1.46875 6.992188-5.261719 16-15.0625 16s-13.601562-9.007812-15.0625-16zm87.0625 0c4.417969 0 8 3.582031 8 8v24h-16v-32zm-120-144h96v16h-96zm0 32h96v96h-96zm-32 120c0-4.417969 3.582031-8 8-8h8v32h-16zm0 40h16v48h-16zm-120-32h48v16h-48zm16 32h48v16h-48zm-16 32h48v16h-48zm-72-112v41.601562c-16.839844-4.4375-32.992188-11.167968-48-20v-21.601562zm-50.65625 53.953125c1.691406-1.519531 2.65625-3.683594 2.65625-5.953125v-8.0625c17.460938 9.226562 36.15625 15.90625 55.511719 19.839844 5.382812 8.441406 8.320312 18.210937 8.488281 28.222656-.058594 3.550781-.597656 7.074219-1.601562 10.480469-27.039063-.746094-53.511719-7.953125-77.199219-21.015625 1.667969-8.855469 5.890625-17.027344 12.144531-23.511719zm-12.617188 41.246094c21.640626 10.75 45.160157 17.203125 69.257813 19-10.019531 11.628906-25.832031 16.449219-40.632813 12.390625-14.800781-4.0625-25.941406-16.277344-28.625-31.390625zm431.273438 240.800781h-448v-160h448zm0-176h-448v-16h448zm0 0" fill="url(#b)"/><path d="m336 64h16v16h-16zm0 0" fill="url(#c)"/><path d="m384 64h16v16h-16zm0 0" fill="url(#c)"/><path d="m337.34375 99.558594c-2.453125 3.675781-1.460938 8.644531 2.214844 11.097656l24 16c2.691406 1.792969 6.191406 1.792969 8.882812 0l24-16c3.675782-2.453125 4.667969-7.421875 2.214844-11.097656-2.453125-3.675782-7.421875-4.667969-11.097656-2.214844l-19.558594 13.054688-19.558594-13.039063c-3.671875-2.457031-8.640625-1.46875-11.097656 2.199219zm0 0" fill="url(#d)"/><path d="m448 416h-16v16h-16v16h32zm0 0" fill="url(#e)"/><path d="m432 352h16v-32h-32v16h16zm0 0" fill="url(#f)"/><path d="m64 448v-16h-16v-16h-16v32zm0 0" fill="url(#e)"/><path d="m48 336h16v-16h-32v32h16zm0 0" fill="url(#f)"/><g fill="url(#g)"><path d="m152 424v-40c0-4.417969-3.582031-8-8-8h-40v-24h48v-16h-56c-4.417969 0-8 3.582031-8 8v40c0 4.417969 3.582031 8 8 8h40v24h-48v16h56c4.417969 0 8-3.582031 8-8zm0 0"/><path d="m184 400h48v32h16v-72c0-2.121094-.84375-4.15625-2.34375-5.65625l-16-16c-1.5-1.5-3.535156-2.34375-5.65625-2.34375h-32c-2.121094 0-4.15625.84375-5.65625 2.34375l-16 16c-1.5 1.5-2.34375 3.535156-2.34375 5.65625v72h16zm11.3125-48h25.375l11.3125 11.3125v20.6875h-48v-20.6875zm0 0"/><path d="m272 432h56v-16h-48v-80h-16v88c0 4.417969 3.582031 8 8 8zm0 0"/><path d="m352 432h48v-16h-40v-24h40v-16h-40v-24h40v-16h-48c-4.417969 0-8 3.582031-8 8v80c0 4.417969 3.582031 8 8 8zm0 0"/></g><path d="m256 16h-24v-16h-16v16h-48v-16h-16v16h-24v80h128zm-16 64h-96v-48h96zm0 0" fill="url(#h)"/></svg>